<?xml version="1.0" encoding="UTF-8"?>
<svg id="Ebene_5" data-name="Ebene 5" xmlns="http://www.w3.org/2000/svg" viewBox="0 0 2519.31 3229.77">
  <defs>
    <style>
      .cls-1 {
        fill: #1d1d1b;
        stroke: #1d1d1b;
        stroke-miterlimit: 10;
      }
    </style>
  </defs>
  <g>
    <polygon class="cls-1" points="1932.47 182.03 1932.47 678.09 1861.6 678.09 1861.6 1032.42 1790.74 1032.42 1790.74 182.03 1932.47 182.03"/>
    <rect class="cls-1" x="1507.27" y="748.96" width="141.73" height="283.46"/>
    <rect class="cls-1" x="1436.41" y="1032.42" width="70.86" height="141.74"/>
    <polygon class="cls-1" points="2357.67 1457.62 2357.67 3158.41 2215.93 3158.41 2215.93 2166.28 2074.2 2166.28 2074.2 2308.01 1932.47 2308.01 1932.47 1882.82 1790.74 1882.82 1790.74 3016.67 1649 3016.67 1649 2449.75 1507.27 2449.75 1507.27 2733.21 1365.54 2733.21 1365.54 2591.48 1223.81 2591.48 1223.81 2024.55 1082.08 2024.55 1082.08 2874.94 940.34 2874.94 940.34 1174.16 1082.08 1174.16 1082.08 323.76 1223.81 323.76 1223.81 890.69 1294.67 890.69 1294.67 1528.49 1436.41 1528.49 1436.41 1174.16 1649 1174.16 1649 1315.89 1790.74 1315.89 1790.74 1174.16 1861.6 1174.16 1861.6 1528.49 2003.33 1528.49 2003.33 678.09 1932.47 678.09 1932.47 607.23 2074.2 607.23 2074.2 465.49 2215.93 465.49 2215.93 1457.62 2357.67 1457.62"/>
  </g>
  <g>
    <polygon class="cls-1" points="1436.41 678.09 1436.41 1032.42 1365.54 1032.42 1365.54 890.69 1294.67 890.69 1294.67 678.09 1436.41 678.09"/>
    <rect class="cls-1" x="1436.41" y="1032.42" width="70.86" height="141.74"/>
    <rect class="cls-1" x="1649" y="1032.42" width="141.74" height="141.74"/>
  </g>
</svg>